<svg xmlns="http://www.w3.org/2000/svg" width="420" height="420" viewBox="0 0 420 420">
  <g fill="none" stroke="#2F5DFF" stroke-opacity="0.16" stroke-width="1.6" stroke-linecap="round" stroke-linejoin="round">
    <path d="M10 40 H70 L85 55 V95 L100 110 H160" />
    <circle cx="10" cy="40" r="3.2" fill="#2F5DFF" fill-opacity="0.16" stroke="none"/>
    <circle cx="160" cy="110" r="3.2" fill="#2F5DFF" fill-opacity="0.16" stroke="none"/>
    <circle cx="85" cy="55" r="2.4" fill="#2F5DFF" fill-opacity="0.16" stroke="none"/>

    <path d="M260 20 V60 L245 75 H210 L195 90 V150" />
    <circle cx="260" cy="20" r="3.2" fill="#2F5DFF" fill-opacity="0.16" stroke="none"/>
    <circle cx="195" cy="150" r="3.2" fill="#2F5DFF" fill-opacity="0.16" stroke="none"/>

    <path d="M330 40 L312 55 L330 70" />
    <path d="M362 40 L380 55 L362 70" />

    <path d="M55 190 q-12 0 -12 12 q0 10 -10 10 q10 0 10 10 q0 12 12 12" />
    <path d="M120 190 q12 0 12 12 q0 10 10 10 q-10 0 -10 10 q0 12 -12 12" />

    <path d="M255 210 a34 34 0 0 1 60 0" />
    <path d="M267 224 a18 18 0 0 1 36 0" />
    <circle cx="285" cy="238" r="3" fill="#2F5DFF" fill-opacity="0.16" stroke="none"/>

    <text x="18" y="260" font-family="monospace" font-size="13" fill="#2F5DFF" fill-opacity="0.16" stroke="none">01</text>
    <text x="18" y="278" font-family="monospace" font-size="13" fill="#2F5DFF" fill-opacity="0.16" stroke="none">10</text>

    <path d="M350 190 L344 216 M362 190 L356 216 M341 199 H365 M339 208 H363" />

    <path d="M40 320 H90 L104 334 V370" />
    <circle cx="40" cy="320" r="3.2" fill="#2F5DFF" fill-opacity="0.16" stroke="none"/>
    <circle cx="104" cy="370" r="3.2" fill="#2F5DFF" fill-opacity="0.16" stroke="none"/>

    <rect x="200" y="330" width="14" height="18" fill="#2F5DFF" fill-opacity="0.14" stroke="none"/>
    <path d="M175 339 H196" />

    <circle cx="330" cy="330" r="16" />
    <circle cx="330" cy="330" r="5" />
    <path d="M330 310 V314 M330 346 V350 M310 330 H314 M346 330 H350 M316 316 L319 319 M341 341 L344 344 M344 316 L341 319 M319 341 L316 344" />
  </g>
</svg>
